<svg height="512pt" viewBox="-48 0 512 512" width="512pt" xmlns="http://www.w3.org/2000/svg"><g fill-rule="evenodd"><path d="m317.171875 10v80.285156c0 20.785156-8.488281 39.667969-22.164063 53.34375-9.96875 9.964844-22.703124 17.179688-36.925781 20.355469v233.460937c0 13.796876-11.289062 25.085938-25.089843 25.085938-13.796876 0-25.089844-11.289062-25.089844-25.085938 0 13.796876-11.289063 25.085938-25.085938 25.085938-13.800781 0-25.089844-11.289062-25.089844-25.085938 0-77.820312 0-155.640624 0-233.460937-14.222656-3.175781-26.957031-10.390625-36.925781-20.355469-13.675781-13.679687-22.164062-32.558594-22.164062-53.34375v-80.285156h39.738281v80.285156c0 9.816406 4.027344 18.753906 10.523438 25.246094 6.492187 6.492188 15.429687 10.523438 25.246093 10.523438h67.519531c9.816407 0 18.753907-4.03125 25.246094-10.523438 6.492188-6.492188 10.523438-15.429688 10.523438-25.246094v-80.285156zm0 0" fill="#ffd4bd"/><path d="m207.90625 126.054688c19.847656 0 36.039062-16.191407 36.039062-36.042969 0-19.847657-16.191406-36.039063-36.039062-36.039063-19.851562 0-36.042969 16.1875-36.042969 36.039063 0 19.851562 16.191407 36.042969 36.042969 36.042969zm0 0" fill="#ffd4bd"/><path d="m10 10h43.300781v492h-43.300781zm0 0" fill="#ff6978"/><path d="m362.511719 10h43.296875v492h-43.296875zm0 0" fill="#ff6978"/><path d="m405.808594 0h-395.808594c-5.523438 0-10 4.476562-10 10v492c0 5.523438 4.476562 10 10 10h43.300781c5.519531 0 10-4.476562 10-10v-482h25.335938v70.285156c0 22.777344 8.914062 44.230469 25.09375 60.414063 9.609375 9.609375 21.246093 16.742187 33.996093 20.902343v54.984376c0 5.523437 4.476563 10 10 10 5.523438 0 10-4.476563 10-10v-62.601563c0-4.683594-3.25-8.738281-7.820312-9.757813-12.101562-2.703124-23.179688-8.816406-32.035156-17.667968-12.402344-12.40625-19.234375-28.839844-19.234375-46.273438v-70.285156h19.738281v70.285156c0 12.164063 4.777344 23.640625 13.453125 32.316406 8.675781 8.675782 20.152344 13.453126 32.316406 13.453126h33.742188.015625.019531 33.742187c12.164063 0 23.644532-4.777344 32.316407-13.453126 8.675781-8.675781 13.453125-20.152343 13.453125-32.316406v-70.285156h19.738281v70.285156c0 17.433594-6.832031 33.867188-19.238281 46.269532-8.855469 8.855468-19.933594 14.96875-32.03125 17.671874-4.570313 1.019532-7.820313 5.078126-7.820313 9.757813v233.460937c0 8.320313-6.769531 15.085938-15.089843 15.085938-8.320313 0-15.089844-6.765625-15.089844-15.085938v-131.808593c0-5.523438-4.476563-10-10-10-5.519532 0-10 4.476562-10 10v131.808593c0 8.320313-6.765625 15.085938-15.085938 15.085938-8.320312 0-15.089844-6.765625-15.089844-15.085938v-90.859374c0-5.523438-4.476562-10-10-10-5.523437 0-10 4.476562-10 10v90.859374c0 19.347657 15.742188 35.085938 35.089844 35.085938 9.820313 0 18.710938-4.054688 25.085938-10.582031 6.375 6.527343 15.269531 10.582031 25.089844 10.582031 19.347656 0 35.089843-15.738281 35.089843-35.085938v-225.84375c12.75-4.160156 24.382813-11.292968 33.996094-20.902343 16.183594-16.183594 25.09375-37.640625 25.09375-60.414063v-70.285156h25.339844v482c0 5.523438 4.476562 10 10 10h43.296875c5.523437 0 10-4.476562 10-10v-492c0-5.523438-4.476563-10-10-10zm-362.507813 492h-23.300781v-472h23.300781zm138.5625-401.988281c0-14.355469 11.683594-26.039063 26.042969-26.039063 14.355469 0 26.039062 11.679688 26.039062 26.039063 0 14.351562-11.671874 26.03125-26.019531 26.042969h-.039062c-14.351563-.011719-26.023438-11.691407-26.023438-26.042969zm85.570313.273437c0 6.824219-2.695313 13.277344-7.59375 18.175782-3.816406 3.8125-8.574219 6.285156-13.71875 7.195312 4.9375-7.335938 7.824218-16.160156 7.824218-25.644531 0-25.382813-20.65625-46.039063-46.042968-46.039063-25.386719 0-46.039063 20.652344-46.039063 46.039063 0 9.484375 2.882813 18.308593 7.820313 25.644531-5.140625-.910156-9.902344-3.382812-13.714844-7.195312-4.898438-4.898438-7.59375-11.351563-7.59375-18.175782v-70.285156h119.058594zm128.375 401.714844h-23.296875v-472h23.296875zm0 0"/><path d="m157.726562 276.585938c5.507813 0 10-4.492188 10-10 0-5.511719-4.492187-10-10-10-5.507812 0-10 4.488281-10 10 0 5.507812 4.492188 10 10 10zm0 0"/></g></svg>